<svg width="24" height="24" viewBox="0 0 24 24" fill="none" xmlns="http://www.w3.org/2000/svg">
<path fill-rule="evenodd" clip-rule="evenodd" d="M22 11.8529C22 17.0281 17.5228 21.2235 12 21.2235C6.47715 21.2235 2 17.0281 2 11.8529C2 6.67768 6.47715 2.48232 12 2.48232C17.5228 2.48232 22 6.67768 22 11.8529ZM11.6139 12.9896C11.1688 13.4067 10.4888 13.5101 9.92577 13.2463C9.36274 12.9825 8.68273 13.0859 8.23761 13.503L6.7209 14.9243C6.4607 15.1681 6.56529 15.5833 6.91439 15.6923C9.04887 16.359 11.4021 15.8384 12.9931 14.3476L14.8989 12.5617C16.4333 11.124 16.8137 8.92746 15.8433 7.10881C15.715 6.86848 15.3732 6.8165 15.1705 7.0065L13.4995 8.57225C13.0544 8.98935 12.9441 9.62656 13.2256 10.1542C13.5071 10.6818 13.3968 11.319 12.9516 11.7361L11.6139 12.9896Z" fill="#49BCF7"/>
</svg>
