<svg width="850" height="195" viewBox="0 0 850 195" fill="none" xmlns="http://www.w3.org/2000/svg">
<g filter="url(#filter0_d)">
<path d="M37.176 42.8966C44.952 40.5926 49.56 40.0166 58.2 40.8806C58.2 41.4566 58.488 42.3206 58.488 43.1846C56.472 47.5046 54.744 52.1126 53.016 56.7206C52.152 58.1606 51.288 59.3126 50.424 60.4646C41.496 62.4806 32.856 62.4806 24.216 61.0406C22.776 62.7686 21.624 63.9206 20.76 65.0726C20.76 67.0886 21.624 67.3766 22.776 67.6646C24.216 67.9526 25.368 67.9526 26.808 67.9526C32.28 67.6646 37.752 67.3766 42.936 67.3766C44.376 67.3766 45.816 67.3766 46.68 68.5286C47.256 70.2566 46.392 71.6966 45.816 73.4246C44.088 77.1686 42.36 81.2006 40.92 85.2326C39.192 89.5526 40.056 93.2966 43.512 95.8886C44.952 96.4646 46.104 96.1766 46.68 95.0246C47.832 92.1446 48.984 88.9766 49.848 85.8086C52.152 79.4726 55.32 73.4246 58.488 67.9526C63.96 67.0886 79.224 66.8006 85.848 67.0886C86.712 67.0886 87.864 67.3766 89.304 67.9526C89.016 69.3926 89.016 70.8326 88.44 71.9846C87.288 75.4406 85.56 78.8966 84.12 82.3526C83.256 84.6566 82.104 86.9606 81.24 88.9766C80.664 90.4166 80.952 91.8566 82.104 93.0086C86.424 92.4326 89.304 90.1286 91.32 86.0966C93.624 81.7766 95.928 76.8806 98.52 72.5606C99.096 71.1206 100.248 69.6806 100.824 68.5286C106.872 67.9526 112.632 67.3766 118.392 66.8006C119.544 66.8006 120.984 66.5126 122.136 65.9366C123.288 65.6486 123.864 63.9206 123 63.3446C121.848 61.9046 120.408 60.7526 118.968 59.6006C114.648 59.8886 110.328 59.8886 106.008 60.1766C106.584 52.9766 110.04 45.4886 116.664 38.2886C121.56 37.7126 127.032 36.8486 132.504 36.8486C134.232 36.8486 136.248 36.5606 137.976 35.9846C139.416 35.6966 140.568 34.8326 139.992 32.8166C137.4 31.3766 134.52 30.2246 131.064 30.5126C127.896 31.0886 124.728 31.9526 120.984 30.8006C121.848 27.6326 123.288 24.7526 124.728 21.8726C125.88 19.8566 126.744 18.1286 127.032 15.8246C127.32 14.0966 126.168 12.3686 124.44 12.0806C122.136 11.5046 119.832 11.5046 116.952 12.3686C116.088 13.5206 114.648 14.9606 113.784 16.6886C112.056 20.1446 110.616 23.6006 109.176 27.0566C108.024 29.6486 106.872 31.9526 104.28 33.9686C97.944 34.2566 91.032 34.5446 84.408 35.1206C82.68 35.1206 81.24 34.8326 79.512 34.8326C79.224 34.8326 78.648 34.2566 78.072 33.6806C78.36 31.0886 80.088 28.7846 81.528 26.4806C82.968 24.1766 84.984 21.8726 87 19.5686C87 18.7046 87 18.1286 87.288 17.2646C87.288 13.8086 86.136 11.7926 83.256 11.2166C80.664 10.3526 77.784 10.3526 75.192 10.9286C72.6 12.9446 71.16 15.5366 70.008 18.1286C67.416 24.1766 64.824 30.2246 61.368 35.4086C58.488 36.5606 55.896 36.2726 53.016 36.5606C48.696 36.5606 44.376 36.8486 40.056 37.1366C38.616 37.1366 37.176 37.7126 36.888 39.4406C36.888 40.3046 37.176 41.4566 37.176 42.8966ZM74.616 40.0166C88.44 38.0006 95.928 37.7126 101.688 38.8646C101.688 39.1526 101.976 39.4406 101.976 39.4406C100.824 42.3206 99.96 45.2006 98.52 47.7926C96.216 51.8246 95.064 56.7206 91.896 60.4646C84.12 61.6166 69.432 61.3286 63.96 60.1766C63.96 59.6006 63.384 59.0246 63.672 58.7366C65.112 54.4166 70.584 45.2006 74.616 40.0166ZM234.559 97.3286C235.135 94.4486 233.983 92.7206 231.967 94.7366C228.799 97.3286 224.479 107.985 196.255 127.857C194.239 129.297 191.935 131.025 188.767 130.737C188.479 128.433 187.903 126.417 187.615 124.401C186.175 110.865 183.871 97.3286 181.279 84.0806C178.687 71.6966 179.839 59.6006 182.143 47.5046C184.159 46.6406 186.175 45.7766 187.903 44.9126C190.783 43.4726 192.511 41.1686 193.951 38.5766C195.391 35.4086 195.103 33.1046 191.935 31.0886C188.479 29.0726 183.007 27.3446 179.263 29.0726C170.335 32.8166 165.151 39.1526 160.255 47.5046C157.375 52.1126 156.799 57.2966 156.799 62.4806C156.799 66.8006 155.359 69.6806 153.055 72.8486C144.991 83.5046 137.215 94.4486 130.302 105.681C130.59 105.681 131.742 105.969 134.334 105.969C142.399 93.8726 145.279 90.1286 153.631 78.0326C154.495 77.1686 155.359 76.3046 156.511 75.4406C157.663 79.4726 166.591 129.873 167.455 134.193C167.743 135.633 167.455 137.073 167.455 138.801C161.695 139.953 155.07 140.817 149.887 147.729C148.735 148.881 147.871 150.609 147.871 152.337C147.583 156.657 151.903 162.129 156.223 163.569C160.543 165.009 164.863 164.433 168.607 162.993C178.975 159.537 186.751 152.913 188.479 141.393C189.055 139.665 189.055 137.649 189.343 136.209C189.343 136.209 191.359 135.345 191.647 135.057C214.399 122.097 233.119 101.361 234.559 97.3286ZM187.327 34.8326C188.767 33.6806 190.207 33.9686 191.071 35.9846C188.767 40.0166 188.767 40.0166 183.583 42.0326C183.583 38.5766 185.023 36.5606 187.327 34.8326ZM159.679 159.249C154.495 158.385 154.495 158.097 152.191 152.337C155.359 146.577 160.255 143.985 166.879 143.697C166.879 150.321 166.591 156.369 159.679 159.249ZM168.031 98.7686L167.455 99.0566C167.455 97.6166 167.167 96.4646 167.167 95.3126H168.031V98.7686ZM356.244 95.6006C356.82 94.7366 357.108 93.8726 357.396 93.0086C357.972 92.4326 358.26 91.5686 358.548 90.7046C358.548 89.8406 358.26 88.6886 357.396 88.6886C357.108 88.4006 356.82 88.4006 356.532 88.6886C356.244 88.6886 355.956 88.9766 355.668 89.2646C353.652 91.8566 352.212 95.0246 350.196 97.6166C348.18 100.497 345.876 103.377 343.572 105.969C339.252 111.441 334.644 116.625 329.748 121.521C326.58 124.977 322.836 128.145 319.092 131.025C316.212 133.617 312.756 134.481 309.012 135.633C308.724 135.633 308.148 135.633 307.86 135.921C307.284 135.921 306.708 135.921 305.844 135.633C305.268 135.633 304.404 135.633 303.828 135.057L303.54 134.769C299.508 130.161 299.22 122.673 301.236 117.201C304.692 108.273 307.572 98.7686 310.74 89.5526C313.62 80.3366 322.26 63.3446 326.292 54.4166C327.732 51.5366 329.46 49.2326 330.9 46.3526C332.916 42.8966 332.628 41.7446 329.748 38.2886C328.884 38.2886 327.732 38.0006 326.58 38.0006C317.652 37.7126 311.028 41.7446 306.996 49.8086C302.676 58.1606 294.036 75.1526 290.004 83.7926C289.716 84.6566 289.428 85.5206 289.14 86.6726C287.124 93.0086 285.108 99.6326 282.804 106.257C282.516 107.697 281.364 108.849 280.5 110.001C274.74 116.049 268.404 121.233 261.492 125.841C261.492 126.993 254.292 129.297 253.14 129.585C250.26 130.449 247.668 131.025 244.5 130.737C243.924 130.737 243.636 130.737 243.348 130.449C241.908 129.873 241.044 126.993 240.468 125.553C239.892 123.825 239.604 121.809 239.604 119.793C239.604 111.729 240.756 103.665 243.348 95.8886C247.956 82.6406 258.036 61.3286 263.22 48.0806C264.084 45.7766 264.66 43.1846 263.508 40.5926C262.932 40.3046 262.356 39.7286 261.78 39.4406C255.732 35.4086 251.7 35.6966 246.804 41.1686C244.212 44.6246 241.332 48.0806 239.316 52.1126C232.404 67.3766 219.444 91.8566 219.156 108.849C218.868 117.201 222.612 129.585 230.676 134.193C233.268 135.633 236.148 135.633 239.316 135.633C248.532 135.345 257.748 133.617 265.524 127.857C269.268 124.977 272.724 122.385 276.468 119.505C277.332 118.929 278.196 118.353 279.636 117.489C279.924 119.505 279.924 120.369 280.212 121.521C280.788 133.329 293.46 142.545 304.116 141.969C305.556 141.969 306.996 141.969 308.148 141.393C312.468 139.377 317.364 137.361 321.108 134.481C325.716 131.313 329.748 127.569 333.492 123.249C337.812 118.353 342.42 113.457 346.74 108.561C348.756 105.969 351.06 103.377 352.788 100.497C353.652 99.3446 354.516 98.1926 355.38 97.0406C355.668 96.7526 355.956 96.1766 356.244 95.6006ZM301.524 91.8566V92.4326L301.236 92.1446L301.524 91.8566ZM300.084 85.2326C300.372 85.5206 300.372 85.5206 300.66 85.8086C300.66 85.8086 300.372 85.8086 300.372 86.0966C300.084 85.8086 300.084 85.8086 300.084 85.8086C300.084 85.5206 300.084 85.5206 300.084 85.2326ZM229.236 113.745C228.948 113.745 228.948 113.745 228.66 113.745C228.66 113.457 228.66 113.457 228.66 113.169C228.66 113.169 228.948 113.169 229.236 113.169C229.236 113.169 229.236 113.457 229.236 113.745ZM230.388 104.529C230.388 105.969 230.964 107.697 229.524 109.137C227.796 105.681 228.372 98.7686 231.252 91.2806C231.828 90.9926 232.404 90.9926 232.98 90.9926C230.964 95.3126 230.964 99.9206 230.388 104.529ZM232.692 86.0966C232.692 87.8246 232.692 89.5526 232.98 90.9926C232.116 89.5526 229.812 88.4006 232.692 86.0966ZM292.02 98.4806C292.596 99.9206 292.596 99.9206 291.156 101.649C291.444 100.497 291.732 99.3446 292.02 98.4806ZM292.02 114.609C291.732 114.033 291.732 113.169 291.732 112.305C292.02 112.305 292.02 112.305 292.308 112.305C292.596 113.169 292.596 113.745 292.596 114.609H292.02ZM293.46 108.273C292.596 104.529 293.748 101.361 296.34 98.4806C296.34 102.225 294.612 105.105 293.46 108.273ZM298.068 95.6006C297.492 96.4646 296.916 97.3286 296.34 98.1926C296.052 96.7526 296.916 96.1766 298.068 95.6006C298.068 95.0246 297.78 94.1606 297.78 93.5846H298.068V95.6006ZM299.22 89.2646L298.932 88.6886L299.22 88.9766V89.2646ZM497.541 109.425C498.693 107.697 500.709 105.969 501.573 104.241C502.437 102.225 503.301 100.497 504.165 98.7686C504.165 97.9046 504.165 97.3286 504.165 96.4646C502.725 95.8886 500.997 96.4646 500.133 97.6166C499.269 98.7686 498.981 100.209 498.405 101.361C496.389 105.393 490.053 112.017 487.173 115.761C484.005 119.505 480.549 122.961 476.805 126.129C474.789 127.857 472.773 129.585 470.469 131.025C469.029 131.889 466.437 133.905 464.709 134.193C457.509 134.769 456.645 125.265 458.085 120.081C460.677 112.305 462.693 104.529 465.573 97.0406C470.181 84.0806 474.501 70.8326 477.669 57.0086C481.125 42.6086 472.197 35.1206 459.813 31.9526C453.765 32.5286 447.717 32.5286 443.109 36.2726C437.637 40.3046 432.741 44.9126 427.557 48.9446C426.981 49.8086 425.829 50.0966 425.541 50.3846C423.813 47.5046 422.661 44.6246 420.645 42.6086C414.309 35.9846 405.669 35.1206 398.181 40.5926C396.741 41.7446 394.725 42.8966 393.573 44.6246C392.421 45.7766 391.557 46.6406 390.117 47.7926C384.645 51.5366 381.765 58.4486 378.885 63.9206C378.021 65.0726 376.581 66.8006 376.869 64.4966C377.157 63.3446 377.733 62.4806 378.021 61.3286C379.461 55.8566 380.901 50.3846 382.053 44.9126C383.205 40.8806 382.053 37.4246 379.173 34.2566C375.429 33.9686 369.381 34.8326 366.213 37.1366C363.333 39.1526 361.029 44.3366 359.301 47.7926C357.573 51.2486 356.421 54.9926 355.269 58.4486C348.357 78.0326 343.173 98.4806 335.973 118.065C335.397 119.793 334.821 121.521 334.533 123.537C333.957 129.009 336.549 132.177 342.021 133.617C344.613 134.193 346.917 134.769 349.509 135.345C353.829 133.617 356.709 130.449 357.861 125.553C358.149 123.249 358.725 120.945 359.589 118.641C364.485 104.529 369.381 90.7046 375.717 77.1686C379.749 68.5286 384.645 60.4646 391.269 53.5526C394.149 50.6726 397.605 48.3686 400.773 46.0646C401.637 45.2006 403.077 45.2006 403.941 44.9126C406.245 46.3526 405.957 48.0806 405.957 49.8086C404.805 58.7366 403.653 67.3766 400.773 75.4406C398.181 82.3526 395.301 89.2646 392.421 96.4646C391.269 99.3446 390.117 102.513 388.965 105.681C387.813 108.561 388.677 110.577 390.981 112.305C392.709 113.745 394.437 113.745 396.741 112.017C400.773 108.849 404.229 105.393 406.533 100.785C409.125 95.8886 411.429 90.7046 413.733 85.8086C416.613 78.8966 419.205 72.2726 422.085 65.3606C424.101 60.4646 426.981 56.4326 431.013 52.9766C435.909 48.6566 441.381 44.9126 446.853 40.8806C448.005 40.0166 449.445 39.4406 450.885 39.1526C454.053 38.2886 456.933 40.0166 457.797 43.4726C458.085 44.3366 458.085 45.4886 458.085 46.3526C458.085 50.3846 456.645 53.8406 455.205 57.2966C449.733 68.8166 444.261 80.6246 439.077 92.4326C435.909 99.0566 434.469 106.257 434.469 113.745C434.757 125.265 442.821 136.785 454.629 138.225C462.981 139.089 468.165 136.785 474.789 131.889C480.261 127.569 485.445 122.385 490.341 117.777C492.933 115.185 495.237 112.017 497.541 109.425ZM363.909 83.2166V83.7926L363.621 83.5046L363.909 83.2166ZM362.757 71.4086V71.1206C362.757 71.4086 362.757 71.4086 362.757 71.4086ZM356.997 89.2646L356.709 87.8246C356.997 88.1126 356.997 88.6886 357.285 89.2646C356.997 89.2646 356.997 89.2646 356.997 89.2646ZM361.029 96.7526C361.029 97.3286 360.453 97.9046 359.877 99.3446C359.013 96.1766 359.589 94.7366 362.181 93.2966C361.605 95.0246 361.317 95.8886 361.029 96.7526ZM360.741 82.9286C360.741 84.0806 360.453 84.9446 360.165 86.0966C360.165 86.0966 359.877 86.3846 359.877 86.6726C359.877 86.3846 360.165 86.0966 360.165 85.8086C359.013 86.3846 357.861 87.2486 356.997 87.8246C358.149 83.7926 359.589 79.7606 361.029 75.7286C361.605 74.2886 362.181 72.8486 362.757 71.4086C363.909 75.7286 361.317 79.1846 360.741 82.9286ZM363.621 91.8566C363.621 90.9926 363.621 89.8406 363.909 88.9766C365.349 84.3686 366.789 79.4726 368.229 74.5766C368.805 73.7126 368.805 72.5606 370.245 72.5606C369.093 79.4726 367.077 85.8086 363.621 91.8566ZM370.533 72.2726C370.245 71.6966 370.245 71.1206 370.245 70.5446C370.533 70.5446 370.533 70.8326 370.821 70.8326C370.821 71.1206 370.533 71.6966 370.533 72.2726ZM376.869 67.6646C377.157 67.6646 377.445 67.9526 377.733 67.9526C377.445 67.9526 377.157 67.6646 376.869 67.6646ZM414.309 57.2966C415.173 62.4806 412.581 71.4086 408.261 77.7446C409.413 69.9686 413.157 64.2086 414.309 57.2966ZM412.005 78.0326C412.293 77.4566 412.293 77.1686 412.581 76.5926V78.0326H412.005ZM412.581 76.0166C412.869 75.1526 412.869 73.7126 413.157 71.6966C414.021 74.2886 414.309 75.4406 412.581 76.0166ZM414.309 69.9686L414.597 69.6806V69.9686H414.309ZM452.613 96.1766L452.901 96.4646H452.613C452.613 96.4646 452.613 96.4646 452.613 96.1766ZM445.701 109.713L445.413 109.425H445.701V109.713ZM447.717 98.7686H447.429H447.717ZM447.717 98.4806C446.853 94.4486 449.445 91.2806 450.885 87.8246C451.173 91.8566 449.733 95.3126 447.717 98.4806ZM450.021 104.817V103.089L450.597 104.529C450.309 104.529 450.309 104.817 450.021 104.817ZM452.037 101.649C451.749 102.225 450.885 102.225 450.021 102.513C450.885 100.497 451.749 98.4806 452.613 96.4646C453.477 98.1926 453.189 100.209 452.037 101.649ZM454.917 72.8486L454.629 72.2726L454.917 72.5606V72.8486ZM645.885 109.425C647.037 107.697 649.053 105.969 649.917 104.241C650.781 102.225 651.645 100.497 652.509 98.7686C652.509 97.9046 652.509 97.3286 652.509 96.4646C651.069 95.8886 649.341 96.4646 648.477 97.6166C647.613 98.7686 647.325 100.209 646.749 101.361C644.733 105.393 638.397 112.017 635.517 115.761C632.349 119.505 628.893 122.961 625.149 126.129C623.133 127.857 621.117 129.585 618.813 131.025C617.373 131.889 614.781 133.905 613.053 134.193C605.853 134.769 604.989 125.265 606.429 120.081C609.021 112.305 611.037 104.529 613.917 97.0406C618.525 84.0806 622.845 70.8326 626.013 57.0086C629.469 42.6086 620.541 35.1206 608.157 31.9526C602.109 32.5286 596.061 32.5286 591.453 36.2726C585.981 40.3046 581.085 44.9126 575.901 48.9446C575.325 49.8086 574.173 50.0966 573.885 50.3846C572.157 47.5046 571.005 44.6246 568.989 42.6086C562.653 35.9846 554.013 35.1206 546.525 40.5926C545.085 41.7446 543.069 42.8966 541.917 44.6246C540.765 45.7766 539.901 46.6406 538.461 47.7926C532.989 51.5366 530.109 58.4486 527.229 63.9206C526.365 65.0726 524.925 66.8006 525.213 64.4966C525.501 63.3446 526.077 62.4806 526.365 61.3286C527.805 55.8566 529.245 50.3846 530.397 44.9126C531.549 40.8806 530.397 37.4246 527.517 34.2566C523.773 33.9686 517.725 34.8326 514.557 37.1366C511.677 39.1526 509.373 44.3366 507.645 47.7926C505.917 51.2486 504.765 54.9926 503.613 58.4486C496.701 78.0326 491.517 98.4806 484.317 118.065C483.741 119.793 483.165 121.521 482.877 123.537C482.301 129.009 484.893 132.177 490.365 133.617C492.957 134.193 495.261 134.769 497.853 135.345C502.173 133.617 505.053 130.449 506.205 125.553C506.493 123.249 507.069 120.945 507.933 118.641C512.829 104.529 517.725 90.7046 524.061 77.1686C528.093 68.5286 532.989 60.4646 539.613 53.5526C542.493 50.6726 545.949 48.3686 549.117 46.0646C549.981 45.2006 551.421 45.2006 552.285 44.9126C554.589 46.3526 554.301 48.0806 554.301 49.8086C553.149 58.7366 551.997 67.3766 549.117 75.4406C546.525 82.3526 543.645 89.2646 540.765 96.4646C539.613 99.3446 538.461 102.513 537.309 105.681C536.157 108.561 537.021 110.577 539.325 112.305C541.053 113.745 542.781 113.745 545.085 112.017C549.117 108.849 552.573 105.393 554.877 100.785C557.469 95.8886 559.773 90.7046 562.077 85.8086C564.957 78.8966 567.549 72.2726 570.429 65.3606C572.445 60.4646 575.325 56.4326 579.357 52.9766C584.253 48.6566 589.725 44.9126 595.197 40.8806C596.349 40.0166 597.789 39.4406 599.229 39.1526C602.397 38.2886 605.277 40.0166 606.141 43.4726C606.429 44.3366 606.429 45.4886 606.429 46.3526C606.429 50.3846 604.989 53.8406 603.549 57.2966C598.077 68.8166 592.605 80.6246 587.421 92.4326C584.253 99.0566 582.813 106.257 582.813 113.745C583.101 125.265 591.165 136.785 602.973 138.225C611.325 139.089 616.509 136.785 623.133 131.889C628.605 127.569 633.789 122.385 638.685 117.777C641.277 115.185 643.581 112.017 645.885 109.425ZM512.253 83.2166V83.7926L511.965 83.5046L512.253 83.2166ZM511.101 71.4086V71.1206C511.101 71.4086 511.101 71.4086 511.101 71.4086ZM505.341 89.2646L505.053 87.8246C505.341 88.1126 505.341 88.6886 505.629 89.2646C505.341 89.2646 505.341 89.2646 505.341 89.2646ZM509.373 96.7526C509.373 97.3286 508.797 97.9046 508.221 99.3446C507.357 96.1766 507.933 94.7366 510.525 93.2966C509.949 95.0246 509.661 95.8886 509.373 96.7526ZM509.085 82.9286C509.085 84.0806 508.797 84.9446 508.509 86.0966C508.509 86.0966 508.221 86.3846 508.221 86.6726C508.221 86.3846 508.509 86.0966 508.509 85.8086C507.357 86.3846 506.205 87.2486 505.341 87.8246C506.493 83.7926 507.933 79.7606 509.373 75.7286C509.949 74.2886 510.525 72.8486 511.101 71.4086C512.253 75.7286 509.661 79.1846 509.085 82.9286ZM511.965 91.8566C511.965 90.9926 511.965 89.8406 512.253 88.9766C513.693 84.3686 515.133 79.4726 516.573 74.5766C517.149 73.7126 517.149 72.5606 518.589 72.5606C517.437 79.4726 515.421 85.8086 511.965 91.8566ZM518.877 72.2726C518.589 71.6966 518.589 71.1206 518.589 70.5446C518.877 70.5446 518.877 70.8326 519.165 70.8326C519.165 71.1206 518.877 71.6966 518.877 72.2726ZM525.213 67.6646C525.501 67.6646 525.789 67.9526 526.077 67.9526C525.789 67.9526 525.501 67.6646 525.213 67.6646ZM562.653 57.2966C563.517 62.4806 560.925 71.4086 556.605 77.7446C557.757 69.9686 561.501 64.2086 562.653 57.2966ZM560.349 78.0326C560.637 77.4566 560.637 77.1686 560.925 76.5926V78.0326H560.349ZM560.925 76.0166C561.213 75.1526 561.213 73.7126 561.501 71.6966C562.365 74.2886 562.653 75.4406 560.925 76.0166ZM562.653 69.9686L562.941 69.6806V69.9686H562.653ZM600.957 96.1766L601.245 96.4646H600.957C600.957 96.4646 600.957 96.4646 600.957 96.1766ZM594.045 109.713L593.757 109.425H594.045V109.713ZM596.061 98.7686H595.773H596.061ZM596.061 98.4806C595.197 94.4486 597.789 91.2806 599.229 87.8246C599.517 91.8566 598.077 95.3126 596.061 98.4806ZM598.365 104.817V103.089L598.941 104.529C598.653 104.529 598.653 104.817 598.365 104.817ZM600.381 101.649C600.093 102.225 599.229 102.225 598.365 102.513C599.229 100.497 600.093 98.4806 600.957 96.4646C601.821 98.1926 601.533 100.209 600.381 101.649ZM603.261 72.8486L602.973 72.2726L603.261 72.5606V72.8486ZM740.305 94.1606C740.017 93.2966 739.441 92.7206 738.865 92.7206C738.001 92.7206 737.137 93.2966 736.561 93.8726C729.361 103.377 728.209 105.681 720.433 115.473C718.993 117.201 716.401 119.505 714.961 121.233C713.233 122.961 712.369 124.113 708.049 126.993C704.017 129.585 700.849 129.585 696.817 131.601C692.497 133.617 689.905 134.193 685.009 133.905C682.993 133.905 681.265 133.617 679.249 133.041C677.809 132.753 676.081 132.465 674.641 131.889C659.089 126.129 657.649 108.561 660.529 94.4486C661.105 91.8566 661.969 89.2646 662.257 86.6726C663.409 86.6726 664.561 86.9606 666.001 86.9606C667.729 86.9606 669.745 86.6726 671.761 86.6726C676.369 86.0966 681.265 85.5206 685.585 84.3686C687.889 83.5046 689.905 82.6406 692.209 81.4886C698.545 78.0326 702.865 73.4246 707.185 67.9526C710.353 64.2086 712.945 59.3126 712.369 54.4166C711.793 50.0966 708.625 45.2006 704.881 42.8966C702.289 40.8806 699.409 39.7286 696.529 38.5766C693.361 37.7126 690.481 36.5606 687.313 37.1366C682.129 37.7126 676.657 38.5766 671.761 41.1686C667.729 43.4726 662.833 45.2006 659.377 48.3686C645.265 61.3286 628.849 83.2166 631.153 103.377C631.441 107.409 632.017 111.441 633.169 115.185C634.897 120.945 638.065 126.705 642.673 130.449C647.281 134.481 653.329 137.073 659.377 138.801C663.985 139.953 668.881 140.529 673.777 140.817C678.097 140.817 682.705 141.393 687.025 140.817C689.041 140.817 689.905 140.529 691.921 139.665C693.937 139.089 696.241 137.937 698.545 137.361C701.425 136.785 700.273 136.209 702.865 135.057C710.929 131.313 718.417 126.993 723.889 119.505C723.889 118.929 725.041 118.065 725.329 117.777C729.361 112.881 733.393 107.121 736.561 101.937C737.713 99.9206 739.729 98.4806 740.305 96.1766C740.593 95.6006 740.593 94.7366 740.305 94.1606ZM670.897 65.3606C673.489 60.4646 676.657 55.8566 680.113 51.8246C682.705 48.9446 685.585 45.7766 689.329 44.3366C692.497 42.8966 695.665 43.7606 698.545 45.4886C699.409 46.0646 700.561 46.9286 701.425 47.5046C704.305 49.8086 706.321 53.5526 706.033 57.2966C704.881 64.2086 700.849 70.2566 695.089 74.2886C687.313 79.7606 674.641 82.6406 665.137 80.0486C666.289 74.2886 668.305 69.9686 670.897 65.3606ZM661.969 57.2966C662.257 57.2966 662.545 57.2966 662.833 57.5846L661.681 60.4646C661.393 60.4646 661.105 60.1766 660.817 60.1766C661.105 59.0246 661.681 58.1606 661.969 57.2966ZM639.217 110.865C638.641 109.137 638.353 107.409 637.777 105.969C638.065 105.681 638.353 105.681 638.353 105.681C638.929 106.545 639.217 107.121 639.505 107.985C639.793 108.849 639.793 109.713 639.793 110.577C639.505 110.865 639.217 110.865 639.217 110.865ZM658.225 62.7686L657.937 62.4806H658.225V62.7686ZM829.613 97.9046C829.613 97.3286 829.325 96.7526 828.749 96.1766C828.461 95.8886 827.597 95.6006 827.309 96.1766C827.021 96.1766 826.733 96.4646 826.445 96.7526C824.429 99.9206 822.125 103.089 820.109 106.545C813.197 117.201 804.557 125.841 795.053 134.193C794.189 134.769 793.325 135.633 792.173 136.209C789.581 137.361 786.989 137.649 784.685 135.633C783.533 134.769 782.669 133.905 781.517 132.753C781.517 126.993 782.093 121.521 784.397 116.049C788.141 107.121 792.461 98.1926 796.493 89.5526C799.373 83.2166 801.965 77.1686 803.117 70.5446C804.269 62.7686 801.101 57.5846 795.053 53.2646C792.749 51.8246 790.445 50.6726 787.565 51.2486C785.261 51.8246 782.957 51.8246 780.653 51.5366C777.485 51.5366 775.181 52.4006 772.589 54.1286C768.845 57.0086 764.237 58.4486 759.341 59.6006C757.037 60.1766 754.733 60.7526 751.853 59.6006C752.141 58.1606 752.429 57.0086 752.717 55.5686C753.869 50.6726 755.597 45.7766 756.461 40.5926C757.613 34.2566 757.613 27.6326 755.885 21.2966C753.581 12.6566 745.229 8.91264 737.453 13.2326C735.149 14.3846 733.421 16.1126 731.693 17.8406C727.661 21.8726 726.509 27.0566 725.645 32.5286C725.069 35.9846 725.933 39.1526 727.661 42.3206C729.389 45.2006 731.405 47.7926 732.845 50.6726C735.725 55.5686 739.181 59.8886 744.077 62.7686C744.365 63.0566 744.365 63.3446 744.653 64.2086C742.925 67.6646 741.485 71.6966 739.181 75.1526C736.013 80.0486 732.557 84.9446 729.389 89.5526C726.221 94.1606 722.765 99.0566 719.309 103.089C718.733 103.665 718.445 104.241 717.869 104.529C717.869 104.817 717.581 104.817 717.581 105.105C717.581 105.393 717.581 105.681 717.869 105.969C718.445 106.545 719.309 106.545 720.173 106.257C720.749 105.969 721.325 105.393 721.901 105.105C722.477 104.529 722.765 104.241 723.053 103.953C723.629 103.665 724.205 103.089 724.493 102.801C731.117 94.4486 737.453 85.5206 742.925 76.3046C743.789 74.5766 744.653 73.1366 745.517 71.4086C746.957 69.1046 748.109 66.8006 749.261 64.2086C750.989 64.4966 752.429 65.0726 753.869 65.3606C755.309 65.3606 756.749 65.6486 757.901 65.3606C761.357 64.2086 764.525 62.7686 767.981 61.3286C772.013 59.8886 775.469 57.2966 780.077 56.7206C781.805 60.1766 781.229 63.0566 780.077 65.9366C775.757 76.8806 771.437 87.5366 767.117 98.4806C764.237 105.969 761.357 113.457 759.053 121.233C756.749 128.433 758.189 135.345 763.085 141.105C764.813 143.697 767.117 145.137 770.285 144.849C771.725 144.849 773.453 145.137 774.893 145.137C777.773 145.713 780.077 145.137 782.669 143.985C784.109 143.409 785.549 142.257 786.989 142.257C792.461 141.681 796.493 138.225 800.237 134.769C801.389 133.617 802.541 132.177 803.693 131.025C812.621 123.537 819.245 114.321 825.581 104.529C826.445 103.377 827.021 102.225 827.885 101.073C828.173 100.209 829.037 99.9206 829.325 99.0566C829.613 98.7686 829.613 98.1926 829.613 97.9046ZM747.245 58.4486C743.789 57.5846 741.773 55.5686 740.333 53.5526C737.453 49.2326 734.861 44.9126 731.981 40.5926C730.253 37.7126 729.677 34.5446 730.541 31.0886C731.117 28.7846 731.693 26.4806 732.557 24.1766C734.285 19.2806 738.029 16.6886 742.637 15.5366C746.957 14.6726 751.565 18.1286 752.429 22.4486C753.581 29.3606 753.581 36.2726 752.141 42.8966C750.989 48.0806 750.125 53.5526 747.245 58.4486ZM771.437 98.1926C771.437 98.1926 771.437 98.4806 771.437 98.7686C771.437 98.4806 771.437 98.1926 771.437 98.1926ZM769.133 114.033C769.133 114.033 769.421 114.033 769.421 114.321C769.133 114.321 769.133 114.033 769.133 114.033C769.997 113.457 769.421 111.153 771.437 111.153C770.573 112.017 771.149 114.033 769.133 114.033ZM771.437 110.865C770.861 109.425 770.573 108.273 772.301 107.409C772.013 108.561 771.725 109.713 771.437 110.865ZM773.741 93.0086C773.741 92.7206 773.741 92.4326 773.741 92.1446C773.741 92.4326 773.741 92.7206 774.029 93.0086C774.029 93.2966 774.029 93.2966 774.029 93.5846C774.029 93.2966 773.741 93.2966 773.741 93.0086ZM773.741 92.1446C774.317 91.5686 774.893 91.2806 775.469 90.7046C775.469 91.8566 774.605 92.1446 773.741 92.1446ZM775.469 90.4166C775.757 89.5526 775.757 88.4006 776.045 87.5366C776.045 88.4006 776.909 89.8406 775.469 90.4166ZM776.045 87.5366C777.197 85.8086 778.061 84.3686 778.925 83.2166C778.925 84.9446 778.925 86.9606 776.045 87.5366ZM779.213 82.3526C778.925 81.7766 778.925 80.9126 779.789 80.3366C779.501 81.2006 779.501 81.7766 779.213 82.3526Z" fill="white"/>
</g>
<defs>
<filter id="filter0_d" x="0.759995" y="0.527206" width="848.853" height="193.876" filterUnits="userSpaceOnUse" color-interpolation-filters="sRGB">
<feFlood flood-opacity="0" result="BackgroundImageFix"/>
<feColorMatrix in="SourceAlpha" type="matrix" values="0 0 0 0 0 0 0 0 0 0 0 0 0 0 0 0 0 0 127 0"/>
<feOffset dy="10"/>
<feGaussianBlur stdDeviation="10"/>
<feColorMatrix type="matrix" values="0 0 0 0 0 0 0 0 0 0 0 0 0 0 0 0 0 0 0.2 0"/>
<feBlend mode="normal" in2="BackgroundImageFix" result="effect1_dropShadow"/>
<feBlend mode="normal" in="SourceGraphic" in2="effect1_dropShadow" result="shape"/>
</filter>
</defs>
</svg>
